# Hierarchical Translation and Rotation (.htr) file
# Generated by EVaRT
[Header]
FileType htr
DataType HTRS
FileVersion 1
NumSegments 23
NumFrames 6
DataFrameRate 120
EulerRotationOrder ZYX
CalibrationUnits mm
RotationUnits Degrees
GlobalAxisofGravity Y
BoneLengthAxis Y
ScaleFactor 1
[SegmentNames&Hierarchy]
#CHILD            PARENT
DaveRoot          GLOBAL
Spine1            DaveRoot
Spine2            Spine1
Spine3            Spine2
Spine4            Spine3
Neck              Spine4
Head              Neck
LClavicle         Spine4
LUpperArm         LClavicle
LLowerArm         LUpperArm
LHand             LLowerArm
RClavicle         Spine4
RUpperArm         RClavicle
RLowerArm         RUpperArm
RHand             RLowerArm
RUpperLeg         DaveRoot
RLowerLeg         RUpperLeg
RFoot             RLowerLeg
RToes             RFoot
LUpperLeg         DaveRoot
LLowerLeg         LUpperLeg
LFoot             LLowerLeg
LToes             LFoot
[BasePosition]
#SegmentName      Tx   Ty   Tz   Rx   Ry   Rz   BoneLength
DaveRoot          209.518790	1014.822220	-351.309218	15.931515	2.618173	-0.612188	100.000000
Spine1            0.000000	100.000000	0.000000	-16.793488	0.293500	-0.473802	100.000000
Spine2            0.000000	100.000000	0.000000	4.672625	0.349043	-0.357343	100.000000
Spine3            0.000000	100.000000	0.000000	10.998894	0.386292	-0.316706	100.000000
Spine4            0.000000	100.000000	0.000000	12.138707	1.462162	1.217268	100.000000
Neck              0.000000	100.000000	0.000000	12.810480	14.955418	1.620949	80.000000
Head              0.000000	80.000000	0.000000	-44.031424	-2.973179	-2.367844	200.000000
LClavicle         0.000000	100.000000	0.000000	-0.941684	-2.086145	-99.536471	200.000000
LUpperArm         0.000000	200.000000	0.000000	10.837043	12.737179	14.309854	300.000000
LLowerArm         0.000000	300.000000	0.000000	2.090205	2.175812	1.895763	200.000000
LHand             0.000000	200.000000	0.000000	-1.396534	-1.768569	8.793625	120.000000
RClavicle         0.000000	100.000000	0.000000	1.262055	-3.879913	108.124298	200.000000
RUpperArm         0.000000	200.000000	0.000000	10.866823	4.985308	-18.992585	300.000000
RLowerArm         0.000000	300.000000	0.000000	5.968673	-3.682026	-7.348670	200.000000
RHand             0.000000	200.000000	0.000000	-1.057110	-1.690862	-7.465634	120.000000
RUpperLeg         -115.911102	-10.000000	31.058285	24.909801	27.531946	-169.439912	530.000000
RLowerLeg         0.000000	530.000000	0.000000	-7.321572	0.479387	-2.520024	460.000000
RFoot             0.000000	460.000000	0.000000	82.352420	-1.863170	1.930421	130.000000
RToes             0.000000	130.000000	0.000000	17.737744	0.005479	-0.002881	100.000000
LUpperLeg         115.911102	-10.000000	31.058285	23.717246	9.590578	-171.144790	530.000000
LLowerLeg         0.000000	530.000000	0.000000	-5.150575	-3.275937	3.046484	460.000000
LFoot             0.000000	460.000000	0.000000	77.933010	-13.262104	9.769004	130.000000
LToes             0.000000	130.000000	0.000000	27.000770	-0.000000	-0.000086	100.000000
#Beginning of Data.
[DaveRoot]
#Fr	Tx	Ty	Tz	Rx	Ry	Rz	SF
359	469.771912	5.347295	178.496740	-6.854457	-48.772875	14.591844	1.000000	
360	473.533972	5.439429	179.568284	-6.838532	-49.658036	15.118052	1.000000	
361	477.214846	4.767439	180.153361	-7.976954	-50.328480	15.750262	1.000000	
362	480.813136	5.477728	181.559988	-7.771413	-51.289541	16.320127	1.000000	
363	484.670637	4.373381	182.093646	-8.832418	-52.000920	17.078275	1.000000	
364	488.449020	4.413452	183.259988	-8.946813	-52.922505	17.757606	1.000000	
[Spine1]
#Fr	Tx	Ty	Tz	Rx	Ry	Rz	SF
359	0.000000	0.000000	0.000000	0.336686	0.200717	-2.106512	1.000000	
360	0.000000	0.000000	0.000000	-0.339185	0.398232	-2.058567	1.000000	
361	0.000000	0.000000	0.000000	0.625671	0.101974	-2.132334	1.000000	
362	0.000000	0.000000	0.000000	-0.266832	0.354604	-2.081085	1.000000	
363	0.000000	0.000000	0.000000	0.291022	0.214146	-2.161885	1.000000	
364	0.000000	0.000000	0.000000	-0.387844	0.406938	-2.120791	1.000000	
[Spine2]
#Fr	Tx	Ty	Tz	Rx	Ry	Rz	SF
359	0.000000	0.000000	0.000000	0.336686	0.200717	-2.106512	1.000000	
360	0.000000	0.000000	0.000000	-0.339185	0.398232	-2.058567	1.000000	
361	0.000000	0.000000	0.000000	0.625671	0.101974	-2.132334	1.000000	
362	0.000000	0.000000	0.000000	-0.266832	0.354604	-2.081085	1.000000	
363	0.000000	0.000000	0.000000	0.291022	0.214146	-2.161885	1.000000	
364	0.000000	0.000000	0.000000	-0.387844	0.406938	-2.120791	1.000000	
[Spine3]
#Fr	Tx	Ty	Tz	Rx	Ry	Rz	SF
359	0.000000	0.000000	0.000000	0.336686	0.200717	-2.106512	1.000000	
360	0.000000	0.000000	0.000000	-0.339185	0.398232	-2.058567	1.000000	
361	0.000000	0.000000	0.000000	0.625671	0.101974	-2.132334	1.000000	
362	0.000000	0.000000	0.000000	-0.266832	0.354604	-2.081085	1.000000	
363	0.000000	0.000000	0.000000	0.291022	0.214146	-2.161885	1.000000	
364	0.000000	0.000000	0.000000	-0.387844	0.406938	-2.120791	1.000000	
[Spine4]
#Fr	Tx	Ty	Tz	Rx	Ry	Rz	SF
359	0.000000	0.000000	0.000000	0.336686	0.200717	-2.106512	1.000000	
360	0.000000	0.000000	0.000000	-0.339185	0.398232	-2.058567	1.000000	
361	0.000000	0.000000	0.000000	0.625671	0.101974	-2.132334	1.000000	
362	0.000000	0.000000	0.000000	-0.266832	0.354604	-2.081085	1.000000	
363	0.000000	0.000000	0.000000	0.291022	0.214146	-2.161885	1.000000	
364	0.000000	0.000000	0.000000	-0.387844	0.406938	-2.120791	1.000000	
[Neck]
#Fr	Tx	Ty	Tz	Rx	Ry	Rz	SF
359	0.000000	0.000000	0.000000	5.595608	-10.228744	7.964840	1.000000	
360	0.000000	0.000000	0.000000	8.077363	-10.761045	8.029416	1.000000	
361	0.000000	0.000000	0.000000	4.457845	-9.655046	7.713965	1.000000	
362	0.000000	0.000000	0.000000	7.523963	-10.257311	7.952146	1.000000	
363	0.000000	0.000000	0.000000	5.521035	-9.577573	7.799963	1.000000	
364	0.000000	0.000000	0.000000	7.965988	-10.030937	7.901990	1.000000	
[Head]
#Fr	Tx	Ty	Tz	Rx	Ry	Rz	SF
359	0.000000	0.000000	0.000000	5.595608	-10.228744	7.964840	1.000000	
360	0.000000	0.000000	0.000000	8.077363	-10.761045	8.029416	1.000000	
361	0.000000	0.000000	0.000000	4.457845	-9.655046	7.713965	1.000000	
362	0.000000	0.000000	0.000000	7.523963	-10.257311	7.952146	1.000000	
363	0.000000	0.000000	0.000000	5.521035	-9.577573	7.799963	1.000000	
364	0.000000	0.000000	0.000000	7.965988	-10.030937	7.901990	1.000000	
[LClavicle]
#Fr	Tx	Ty	Tz	Rx	Ry	Rz	SF
359	0.000000	0.000000	0.000000	0.753638	0.112607	-13.415546	1.000000	
360	0.000000	0.000000	0.000000	6.677978	0.944341	-12.930392	1.000000	
361	0.000000	0.000000	0.000000	-2.424310	-0.339493	-12.884794	1.000000	
362	0.000000	0.000000	0.000000	5.254293	0.856930	-14.154876	1.000000	
363	0.000000	0.000000	0.000000	0.816452	0.124917	-13.616028	1.000000	
364	0.000000	0.000000	0.000000	6.709242	0.964597	-13.061980	1.000000	
[LUpperArm]
#Fr	Tx	Ty	Tz	Rx	Ry	Rz	SF
359	0.000000	0.000000	0.000000	25.431042	26.307656	-45.422515	1.000000	
360	0.000000	0.000000	0.000000	12.528705	18.723678	-53.073766	1.000000	
361	0.000000	0.000000	0.000000	34.689554	31.044113	-40.630977	1.000000	
362	0.000000	0.000000	0.000000	16.526916	23.313829	-49.538898	1.000000	
363	0.000000	0.000000	0.000000	26.129088	26.896256	-44.430815	1.000000	
364	0.000000	0.000000	0.000000	13.256080	19.669776	-52.171385	1.000000	
[LLowerArm]
#Fr	Tx	Ty	Tz	Rx	Ry	Rz	SF
359	0.000000	0.000000	0.000000	-2.313440	-0.000000	0.000000	1.000000	
360	0.000000	0.000000	0.000000	12.096077	-0.000000	0.000000	1.000000	
361	0.000000	0.000000	0.000000	-13.087227	-0.000000	0.000000	1.000000	
362	0.000000	0.000000	0.000000	4.771804	-0.000000	0.000000	1.000000	
363	0.000000	0.000000	0.000000	-2.005421	-0.000000	0.000000	1.000000	
364	0.000000	0.000000	0.000000	12.238080	-0.000000	0.000000	1.000000	
[LHand]
#Fr	Tx	Ty	Tz	Rx	Ry	Rz	SF
359	0.000000	0.000000	0.000000	9.393672	0.000000	-0.000000	1.000000	
360	0.000000	0.000000	0.000000	0.288466	0.000000	-0.000000	1.000000	
361	0.000000	0.000000	0.000000	17.425841	0.000000	-0.000000	1.000000	
362	0.000000	0.000000	0.000000	5.984647	0.000000	-0.000000	1.000000	
363	0.000000	0.000000	0.000000	9.700076	0.000000	-0.000000	1.000000	
364	0.000000	0.000000	0.000000	0.684820	0.000000	-0.000000	1.000000	
[RClavicle]
#Fr	Tx	Ty	Tz	Rx	Ry	Rz	SF
359	0.000000	0.000000	0.000000	0.722231	-0.098315	7.426189	1.000000	
360	0.000000	0.000000	0.000000	2.583551	-0.324728	6.833861	1.000000	
361	0.000000	0.000000	0.000000	0.043878	-0.006104	7.595056	1.000000	
362	0.000000	0.000000	0.000000	2.375435	-0.314933	7.222604	1.000000	
363	0.000000	0.000000	0.000000	0.906675	-0.124881	7.516401	1.000000	
364	0.000000	0.000000	0.000000	2.746986	-0.352641	6.984423	1.000000	
[RUpperArm]
#Fr	Tx	Ty	Tz	Rx	Ry	Rz	SF
359	0.000000	0.000000	0.000000	11.477389	-27.156525	59.084805	1.000000	
360	0.000000	0.000000	0.000000	6.472449	-23.601534	62.667394	1.000000	
361	0.000000	0.000000	0.000000	14.402443	-28.236176	56.980837	1.000000	
362	0.000000	0.000000	0.000000	7.707463	-24.348571	61.346001	1.000000	
363	0.000000	0.000000	0.000000	12.292069	-26.606263	58.387514	1.000000	
364	0.000000	0.000000	0.000000	7.334575	-22.949163	61.888501	1.000000	
[RLowerArm]
#Fr	Tx	Ty	Tz	Rx	Ry	Rz	SF
359	0.000000	0.000000	0.000000	11.097966	-0.000000	-0.000000	1.000000	
360	0.000000	0.000000	0.000000	13.539074	-0.000000	-0.000000	1.000000	
361	0.000000	0.000000	0.000000	10.209343	-0.000000	-0.000000	1.000000	
362	0.000000	0.000000	0.000000	12.997676	-0.000000	-0.000000	1.000000	
363	0.000000	0.000000	0.000000	11.309506	-0.000000	-0.000000	1.000000	
364	0.000000	0.000000	0.000000	13.970936	-0.000000	-0.000000	1.000000	
[RHand]
#Fr	Tx	Ty	Tz	Rx	Ry	Rz	SF
359	0.000000	0.000000	0.000000	3.846457	-1.494692	5.504512	1.000000	
360	0.000000	0.000000	0.000000	1.945084	-2.953492	5.417884	1.000000	
361	0.000000	0.000000	0.000000	4.897098	-0.925188	5.367797	1.000000	
362	0.000000	0.000000	0.000000	2.937800	-2.653591	5.415356	1.000000	
363	0.000000	0.000000	0.000000	4.320755	-1.897438	5.177271	1.000000	
364	0.000000	0.000000	0.000000	2.341764	-3.636048	5.159521	1.000000	
[RUpperLeg]
#Fr	Tx	Ty	Tz	Rx	Ry	Rz	SF
359	0.000000	0.000000	0.000000	-0.617251	-7.686607	3.517280	1.000000	
360	0.000000	0.000000	0.000000	-0.709146	-7.426617	3.715983	1.000000	
361	0.000000	0.000000	0.000000	-1.679259	-6.990904	3.359843	1.000000	
362	0.000000	0.000000	0.000000	-1.623579	-6.777648	3.604762	1.000000	
363	0.000000	0.000000	0.000000	-2.268477	-6.443012	3.265207	1.000000	
364	0.000000	0.000000	0.000000	-2.247481	-6.267690	3.367109	1.000000	
[RLowerLeg]
#Fr	Tx	Ty	Tz	Rx	Ry	Rz	SF
359	0.000000	0.000000	0.000000	-32.181087	-0.000000	-0.000000	1.000000	
360	0.000000	0.000000	0.000000	-32.449209	0.000000	-0.000000	1.000000	
361	0.000000	0.000000	0.000000	-32.830210	-0.000000	-0.000000	1.000000	
362	0.000000	0.000000	0.000000	-32.989598	-0.000000	-0.000000	1.000000	
363	0.000000	0.000000	0.000000	-33.605292	-0.000000	-0.000000	1.000000	
364	0.000000	0.000000	0.000000	-34.003084	0.000000	-0.000000	1.000000	
[RFoot]
#Fr	Tx	Ty	Tz	Rx	Ry	Rz	SF
359	0.000000	0.000000	0.000000	11.743514	0.144225	-21.582830	1.000000	
360	0.000000	0.000000	0.000000	11.884638	0.294756	-21.871970	1.000000	
361	0.000000	0.000000	0.000000	12.120920	0.628761	-22.079692	1.000000	
362	0.000000	0.000000	0.000000	12.088901	1.005235	-22.190287	1.000000	
363	0.000000	0.000000	0.000000	12.351127	1.387170	-22.356653	1.000000	
364	0.000000	0.000000	0.000000	12.355637	1.691157	-22.516959	1.000000	
[RToes]
#Fr	Tx	Ty	Tz	Rx	Ry	Rz	SF
359	0.000000	0.000000	0.000000	1.812536	0.000000	0.000000	1.000000	
360	0.000000	0.000000	0.000000	1.661840	0.000000	0.000000	1.000000	
361	0.000000	0.000000	0.000000	1.360572	0.000000	0.000000	1.000000	
362	0.000000	0.000000	0.000000	0.972816	0.000000	0.000000	1.000000	
363	0.000000	0.000000	0.000000	0.700999	0.000000	0.000000	1.000000	
364	0.000000	0.000000	0.000000	0.466242	0.000000	0.000000	1.000000	
[LUpperLeg]
#Fr	Tx	Ty	Tz	Rx	Ry	Rz	SF
359	0.000000	0.000000	0.000000	2.709890	-9.442146	-7.195914	1.000000	
360	0.000000	0.000000	0.000000	3.069623	-9.726289	-7.273595	1.000000	
361	0.000000	0.000000	0.000000	2.376042	-9.995491	-7.504796	1.000000	
362	0.000000	0.000000	0.000000	2.785000	-10.278040	-7.550139	1.000000	
363	0.000000	0.000000	0.000000	2.349185	-10.681899	-7.796865	1.000000	
364	0.000000	0.000000	0.000000	2.653433	-11.071810	-7.896267	1.000000	
[LLowerLeg]
#Fr	Tx	Ty	Tz	Rx	Ry	Rz	SF
359	0.000000	0.000000	0.000000	-8.721165	0.000000	0.000000	1.000000	
360	0.000000	0.000000	0.000000	-8.434508	0.000000	0.000000	1.000000	
361	0.000000	0.000000	0.000000	-8.137193	-0.000000	-0.000000	1.000000	
362	0.000000	0.000000	0.000000	-7.508952	-0.000000	-0.000000	1.000000	
363	0.000000	0.000000	0.000000	-7.279176	0.000000	0.000000	1.000000	
364	0.000000	0.000000	0.000000	-6.796930	0.000000	0.000000	1.000000	
[LFoot]
#Fr	Tx	Ty	Tz	Rx	Ry	Rz	SF
359	0.000000	0.000000	0.000000	6.091979	13.377518	3.880881	1.000000	
360	0.000000	0.000000	0.000000	5.852374	13.423414	4.454492	1.000000	
361	0.000000	0.000000	0.000000	5.597978	13.538962	4.963772	1.000000	
362	0.000000	0.000000	0.000000	5.177606	13.477038	5.514079	1.000000	
363	0.000000	0.000000	0.000000	5.017159	13.824942	6.089477	1.000000	
364	0.000000	0.000000	0.000000	4.742316	13.880031	6.633257	1.000000	
[LToes]
#Fr	Tx	Ty	Tz	Rx	Ry	Rz	SF
359	0.000000	0.000000	0.000000	2.127866	-0.000000	-0.000000	1.000000	
360	0.000000	0.000000	0.000000	2.121553	-0.000000	-0.000000	1.000000	
361	0.000000	0.000000	0.000000	2.174292	-0.000000	-0.000000	1.000000	
362	0.000000	0.000000	0.000000	2.050574	-0.000000	-0.000000	1.000000	
363	0.000000	0.000000	0.000000	2.287018	-0.000000	-0.000000	1.000000	
364	0.000000	0.000000	0.000000	2.242397	-0.000000	-0.000000	1.000000	
